<svg height="512pt" viewBox="0 0 512.01028 512" width="512pt" xmlns="http://www.w3.org/2000/svg"><path d="m341.332031 170.671875c-8.601562.027344-17.195312.703125-25.695312 2.023437.066406-.710937.097656-1.390624.097656-2.023437v-42.667969c0-8.371094-4.75-20.144531-25.871094-30.726562.175781-1.128906.265625-2.265625.269531-3.40625v-42.664063c0-33.617187-70.832031-51.20312475-140.800781-51.20312475-69.964843 0-140.796875 17.58593775-140.796875 51.20312475v42.664063c0 8.34375 4.871094 20.199218 26.09375 30.726562-.253906 1.121094-.417968 2.261719-.496094 3.40625v42.265625c-27.980468 11.417969-34.132812 24.914063-34.132812 34.535157v42.667968c0 8.933594 5.332031 21.917969 30.632812 32.957032l.152344.0625.0625.023437c11.5 4.871094 23.457032 8.578125 35.695313 11.074219 14.421875 2.9375 29.023437 4.925781 43.707031 5.949218 9.398438.75 19.675781 1.132813 30.550781 1.132813 8.097657 0 15.25-.199219 21.730469-.609375 4.757812-.21875 9.425781-.53125 13.976562-.929688-18.9375 70.621094 9.21875 145.457032 70.003907 186.082032 60.789062 40.628906 140.703125 38.019531 198.710937-6.488282 58.007813-44.503906 81.222656-121.015624 57.71875-190.25-23.5-69.238281-88.492187-115.808593-161.609375-115.804687zm-42.664062-42.667969c0 4.066406-5.007813 9.242188-13.535157 13.925782-2.269531 1.289062-4.613281 2.441406-7.015624 3.457031-2.609376 1.167969-5.417969 2.285156-8.429688 3.351562l-.183594.058594c-6.617187 2.300781-13.355468 4.21875-20.191406 5.75-.234375.054687-.503906.097656-.738281.152344-3.535157.800781-7.203125 1.5625-11.050781 2.265625l-.253907.042968c-6.039062 1.058594-12.316406 1.925782-18.742187 2.660157-.976563.109375-1.859375.199219-2.796875.300781-6.511719.683594-13.160157 1.242188-19.996094 1.585938-6.257813.390624-13.054687.582031-20.800781.582031-10.425782 0-20.242188-.363281-29.289063-1.089844l-.371093-.03125c-5.132813-.378906-10.125-.976563-15.117188-1.5625-3.707031-.425781-7.441406-.933594-11.203125-1.523437-4.027344-.621094-8.027344-1.261719-11.90625-2.023438-.75-.148438-1.542969-.277344-2.289063-.425781-.253906-.050781-.511718-.085938-.773437-.109375-1.539063-.339844-2.953125-.707032-4.4375-1.058594-1.640625-.394531-3.347656-.769531-4.910156-1.179688-1.207031-.316406-2.292969-.65625-3.453125-.980468-1.722656-.480469-3.5-.953125-5.113282-1.457032-.898437-.277343-1.6875-.578124-2.554687-.863281-1.742187-.570312-3.515625-1.140625-5.125-1.738281-2.40625-.890625-4.667969-1.8125-6.777344-2.761719l-.039062-.019531c-2.386719-1.015625-4.714844-2.167969-6.96875-3.457031-4.738281-2.292969-8.847657-5.699219-11.972657-9.933594 7.371094 2.398437 14.863282 4.425781 22.441407 6.066406 14.421875 2.9375 29.023437 4.925781 43.707031 5.949219 9.402344.753906 19.675781 1.136719 30.550781 1.136719 8.097657 0 15.25-.203125 21.757813-.609375 14.679687-.699219 29.300781-2.3125 43.777344-4.824219 15.261718-2.503906 30.179687-6.777344 44.453124-12.730469h.007813l.089844-.035156c8.351562-3.324219 15.960937-8.285156 22.375-14.585938 12.316406 6.046876 16.875 11.9375 16.875 15.714844zm0 25.632813v17.035156c-.285157 2.433594-1.429688 4.6875-3.234375 6.347656-1.785156.496094-3.554688 1.015625-5.300782 1.5625v-20.113281c1.089844-.554688 2.347657-1.078125 3.34375-1.648438l.109376-.066406.011718-.007812.007813-.003906c1.859375-1.027344 3.488281-2.066407 5.0625-3.105469zm-25.601563 11.925781v19.574219c-7.734375 3.324219-15.203125 7.242187-22.332031 11.71875-1.066406.265625-2.171875.507812-3.269531.753906v-25.273437c8.664062-1.742188 17.210937-4.003907 25.601562-6.773438zm-42.667968 9.765625v25.320313c-8.210938 1.25-16.742188 2.203124-25.597657 2.855468v-25.414062c2.628907-.203125 5.125-.433594 7.335938-.675782h.109375c.242187 0 .523437-.007812.746094-.03125.867187-.078124 1.652343-.195312 2.511718-.28125 2.503906-.25 4.964844-.527343 7.425782-.828124 1.320312-.160157 2.753906-.277344 4.03125-.449219 1.164062-.140625 2.285156-.328125 3.4375-.496094zm-42.664063 3.671875v25.582031c-4.015625.136719-8.203125.226563-12.800781.226563-7.496094 0-14.539063-.257813-21.332032-.628906v-25.574219c6.8125.355469 13.859376.601562 21.332032.601562 4.570312 0 8.777344-.082031 12.800781-.210937zm-51.199219-1.636719v25.417969c-8.804687-.871094-17.339844-2.054688-25.601562-3.542969v-25.242187c.398437.070312.785156.15625 1.183594.21875 1.40625.246094 2.761718.34375 4.167968.566406 3.933594.609375 7.886719 1.144531 11.917969 1.625 1.492187.167969 3.0625.472656 4.53125.613281 1.238281.136719 2.53125.214844 3.800781.339844zm-42.667968-6.867187v25.085937c-5.785157-1.503906-11.484376-3.328125-17.066407-5.460937v-24.550782c5.183594 1.75 10.871094 3.390626 17.066407 4.921876zm-34.132813-12.027344v23.078125c-3.472656-2.019531-6.28125-5.007813-8.074219-8.597656-.285156-.726563-.4375-1.496094-.460937-2.277344v-17.035156c1.578125 1.042969 3.199219 2.085937 5.066406 3.109375 1.089844.621094 2.324219 1.136718 3.46875 1.722656zm-8.535156-45.160156v-24.539063c5.175781 1.75 10.867187 3.390625 17.066406 4.921875v25.085938c-5.785156-1.503906-11.484375-3.328125-17.066406-5.46875zm34.132812 9.125v-25.363282c6.589844 1.128907 13.292969 2.074219 20.152344 2.824219.203125.015625.375.117188.582031.117188h.089844c.054688 0 .097656-.027344.15625-.027344 1.535156.164063 3.070312.328125 4.617188.476563v25.511718c-8.800782-.867187-17.332032-2.046875-25.597657-3.539062zm42.667969 4.945312v-25.578125c6.816406.359375 13.863281.605469 21.332031.605469 4.574219 0 8.78125-.082031 12.800781-.210938v25.582032c-4.015624.136718-8.203124.226562-12.800781.226562-7.496093 0-14.535156-.253906-21.332031-.625zm51.199219-.675781v-25.550781c8.792969-.625 17.328125-1.542969 25.601562-2.746094v25.441406c-8.210937 1.25-16.746093 2.199219-25.601562 2.855469zm42.667969-5.910156v-25.257813c8.660156-1.742187 17.210937-4.003906 25.597656-6.773437v24.5c-8.328125 3.152343-16.886719 5.671875-25.597656 7.53125zm42.667968-16.097657v-23.027343c1.085938-.554688 2.34375-1.078125 3.339844-1.648438l.109375-.066406.023437-.011719c1.855469-1.023437 3.488282-2.066406 5.058594-3.105468v17.035156c0 2.707031-2.46875 6.585937-8.53125 10.824218zm-230.402344 0c-6.058593-4.230468-8.53125-8.117187-8.53125-10.828124v-17.03125c1.578126 1.042968 3.199219 2.085937 5.066407 3.109374 1.085937.621094 2.320312 1.136719 3.464843 1.722657zm-8.53125-53.488281c0-13.917969 48.199219-34.136719 123.730469-34.136719 75.535157 0 123.734375 20.21875 123.734375 34.136719 0 4.066407-5.007812 9.238281-13.53125 13.921875-2.269531 1.289063-4.613281 2.445313-7.019531 3.460938-13.058594 5.421875-26.707031 9.3125-40.664063 11.589844-13.800781 2.382812-27.730468 3.914062-41.71875 4.574218-6.257812.390625-13.058593.585938-20.800781.585938-10.425781 0-20.242187-.367188-29.257812-1.085938-13.921875-.96875-27.765625-2.847656-41.441407-5.625-11.183593-2.261718-22.113281-5.644531-32.621093-10.097656l-.035157-.019531c-2.390624-1.015625-4.714843-2.167969-6.96875-3.457031-8.398437-4.609376-13.40625-9.78125-13.40625-13.847657zm0 207.09375c-6.058593-4.234375-8.535156-8.121093-8.535156-10.828125v-17.035156c1.578125 1.042969 3.199219 2.082031 5.066406 3.109375 1.089844.621094 2.320313 1.136719 3.46875 1.71875zm34.132813 14.078125c-5.785156-1.503906-11.484375-3.332031-17.066406-5.46875v-24.542968c5.175781 1.753906 10.863281 3.394531 17.066406 4.921874zm42.664063 7.199219c-8.800782-.871094-17.335938-2.054687-25.597657-3.542969v-25.367187c8.324219 1.429687 16.859375 2.558593 25.597657 3.390625zm51.203124 1.800781c-4.015624.136719-8.207031.226563-12.800781.226563-7.496093 0-14.539062-.257813-21.335937-.628907v-25.574218c6.816406.355468 13.863281.601562 21.335937.601562 4.570313 0 8.777344-.078125 12.800781-.207031zm8-43.023437c-6.261718.390625-13.058593.582031-20.800781.582031-10.425781 0-20.242187-.367188-29.257812-1.082031-13.921875-.972657-27.765625-2.851563-41.441407-5.625-11.1875-2.265625-22.113281-5.648438-32.621093-10.097657l-.039063-.019531c-2.386718-1.015625-4.714844-2.171875-6.964844-3.457031-8.402343-4.609375-13.410156-9.785156-13.410156-13.851562 0-4.359376 6.1875-11.53125 22.890625-18.457032 6.730469 7.707032 15.25 13.640625 24.8125 17.28125l.148438.0625.0625.027344c11.5 4.867188 23.457031 8.578125 35.695312 11.070312 14.421875 2.9375 29.023438 4.925782 43.707031 5.949219 9.402344.75 19.675782 1.132813 30.550782 1.132813 8.097656 0 15.25-.199219 21.757812-.605469 8.902344-.445313 17.511719-1.269531 25.941406-2.28125-4.394531 4.25-8.550781 8.734375-12.457031 13.4375-2.253906.464844-4.488281.9375-6.855469 1.359375-13.800781 2.382812-27.734374 3.910156-41.71875 4.574219zm9.066407 42.066406v-25.671875c8.71875-.621094 17.175781-1.523438 25.367187-2.707031-5.375 8.65625-9.941406 17.789062-13.640625 27.28125-3.796875.429687-7.699219.800781-11.726562 1.097656zm170.664062 214.515625c-84.789062-.097656-153.5-68.808594-153.597656-153.597656-.042969-17.480469 2.941406-34.832032 8.824219-51.292969 3.902344-11.089844 9.113281-21.679687 15.515625-31.542969 2.792969-4.535156 5.902343-8.871094 9.300781-12.96875 10.445312-13.132812 22.992188-24.441406 37.132812-33.476562 8.289063-5.375 17.101563-9.902344 26.300782-13.507813 5.644531-2.28125 11.429687-4.191406 17.324218-5.71875 57.652344-15.230469 118.910157 4.285157 157.132813 50.058594 38.21875 45.773437 46.492187 109.53125 21.21875 163.542969-25.269531 54.011718-79.519531 88.515625-139.152344 88.503906zm0 0"/><path d="m426.683594 380.171875-.175782.007813c-6.777343.015624-13.261718 2.757812-17.992187 7.609374-7.671875 8.007813-18.195313 12.660157-29.28125 12.949219-5.9375-.261719-11.796875-1.445312-17.367187-3.507812l-.824219-.25-1.09375-.316407c-5.378907-1.667968-10.84375-3.050781-16.367188-4.148437-5.21875-.972656-10.484375-1.675781-15.773437-2.109375 3.285156-8.816406 5.5625-17.976562 6.785156-27.308594h15.273438c14.136718 0 25.597656-11.460937 25.597656-25.597656 0-14.140625-11.460938-25.601562-25.597656-25.601562h-17.492188c-.21875-1.074219-.453125-2.148438-.675781-3.214844l-.683594-3.242188c-3.316406-10.109375-4.125-20.871094-2.367187-31.359375 3.613281-9.699219 12.308593-16.589843 22.574218-17.890625 6.847656-.851562 13.753906 1.007813 19.242188 5.179688 3.128906 2.3125 5.089844 5.878906 5.367187 9.761718 1.046875 14.074219 13.304688 24.640626 27.378907 23.59375 14.078124-1.042968 24.640624-13.300781 23.597656-27.378906-1.285156-17.890625-9.957032-34.441406-23.933594-45.683594-16.363281-12.980468-37.253906-18.847656-57.984375-16.28125-30.226563 3.765626-55.578125 24.609376-65.117187 53.539063-4.550782 17.378906-4.460938 35.644531.257812 52.976563h-6.964844c-14.136718 0-25.601562 11.460937-25.601562 25.597656 0 14.140625 11.464844 25.601562 25.601562 25.601562h9.484375c-2.257812 10.585938-7.109375 20.449219-14.117187 28.699219-1.746094 2.183594-3.863282 4.046875-6.25 5.5-13.699219 1.246094-23.96875 13.082031-23.269532 26.820313.699219 13.738281 12.121094 24.46875 25.875 24.316406l1.609376-.027344c6.558593-.644531 13.046874-1.90625 19.371093-3.765625 2.863281-.816406 5.769531-1.488281 8.703125-2.007813 13.160156-2.101562 26.578125-2.03125 39.714844.207032 4.144531.847656 8.238281 1.90625 12.269531 3.175781 10.476563 3.589844 21.4375 5.585937 32.511719 5.917969h1.441406c24.347656-.578125 47.492188-10.710938 64.433594-28.210938 7.226562-7.339844 9.351562-18.300781 5.386719-27.808594-3.964844-9.507812-13.246094-15.710937-23.546875-15.742187zm6.066406 31.507813-.050781.050781c-13.777344 14.285156-32.613281 22.59375-52.453125 23.132812h-1.28125c-9.425782-.355469-18.746094-2.109375-27.660156-5.203125-4.609376-1.457031-9.296876-2.660156-14.039063-3.609375-7.398437-1.359375-14.90625-2.027343-22.425781-2-7.625.03125-15.238282.597657-22.785156 1.691407-3.609376.601562-7.1875 1.410156-10.707032 2.417968-5.109375 1.511719-10.335937 2.585938-15.625 3.207032h-.933594c-4.53125.046874-8.351562-3.367188-8.808593-7.875-.328125-4.644532 3.082031-8.710938 7.707031-9.199219 7.039062-1.507813 13.292969-5.511719 17.601562-11.277344 11.324219-13.433594 18.238282-30.027344 19.796876-47.53125.261718-2.40625-.511719-4.8125-2.128907-6.617187-1.617187-1.804688-3.925781-2.835938-6.347656-2.835938h-19.542969c-4.710937 0-8.53125-3.820312-8.53125-8.53125 0-4.714844 3.820313-8.535156 8.53125-8.535156h17.492188c2.558594 0 4.976562-1.148438 6.597656-3.125 1.621094-1.976563 2.269531-4.578125 1.765625-7.082032l-1.183594-5.632812c-4.910156-15.9375-5.488281-32.898438-1.675781-49.132812 7.5-22.566407 27.332031-38.792969 50.933594-41.675782 16.101562-2.027344 32.34375 2.496094 45.078125 12.558594 10.34375 8.308594 16.761719 20.546875 17.714843 33.78125.191407 2.21875-.519531 4.417969-1.976562 6.101562-2.246094 2.617188-5.851562 3.621094-9.128906 2.542969-3.277344-1.082031-5.582032-4.027343-5.835938-7.46875-.652344-8.550781-4.875-16.429687-11.632812-21.707031-9.078125-7.183594-20.683594-10.382812-32.160156-8.859375-16.867188 2.175781-31.070313 13.683594-36.699219 29.734375-2.808594 13.496094-2.085938 27.488281 2.101562 40.625l.546875 2.589844c.660156 3.132812 1.34375 6.324218 1.859375 9.566406.660157 4.140625 4.234375 7.1875 8.425781 7.183594h24.578126c4.710937 0 8.53125 3.820312 8.53125 8.535156 0 4.710938-3.820313 8.53125-8.53125 8.53125h-22.957032c-4.460937 0-8.171875 3.441406-8.507812 7.894531-.941406 14.140625-4.691406 27.953125-11.03125 40.632813-1.347656 2.644531-1.222656 5.796875.328125 8.324218 1.546875 2.53125 4.300781 4.074219 7.265625 4.078126 8.550781-.019532 17.085937.761718 25.492187 2.332031 4.964844.992187 9.875 2.242187 14.707031 3.75l1.800782.523437c7.300781 2.667969 14.996094 4.097656 22.769531 4.230469 15.484375-.382813 30.195313-6.859375 40.933594-18.023437 1.5625-1.613282 3.710937-2.527344 5.957031-2.535157h.058594c3.425781-.007812 6.519531 2.042969 7.847656 5.199219 1.324219 3.15625.621094 6.804688-1.78125 9.242188zm0 0"/><path d="m251.707031 253.664062c-3.296875-3.367187-8.695312-3.425781-12.066406-.132812-21.78125 24.019531-34.152344 55.097656-34.832031 87.515625-.078125 2.261719.746094 4.460937 2.289062 6.113281 1.542969 1.65625 3.683594 2.628906 5.945313 2.703125.097656.007813.199219.007813.300781.007813 4.59375-.003906 8.355469-3.648438 8.515625-8.242188.710937-28.007812 11.234375-54.875 29.730469-75.914062 3.355468-3.300782 3.40625-8.6875.117187-12.050782zm0 0"/><path d="m273.066406 238.9375c0 4.714844-3.820312 8.535156-8.53125 8.535156-4.714844 0-8.535156-3.820312-8.535156-8.535156 0-4.710938 3.820312-8.53125 8.535156-8.53125 4.710938 0 8.53125 3.820312 8.53125 8.53125zm0 0"/></svg>